# xmcd
#
# Track frame offsets: 
#        150
#        15786
#        29738
#        49687
#        55748
#
# Disc length: 876 seconds
#
# Revision: 0
# Processed by: cddbd v1.5.2PL0 Copyright (c) Steve Scherf et al.
# Submitted via: ExactAudioCopyFreeDBPlugin 1.0
#
DISCID=33036a05
DTITLE=Totenwolf - Yew Holds All
DYEAR=2017
DGENRE=Neofolk
TTITLE0=Yew Holds All
TTITLE1=Lucifer
TTITLE2=Far From Silver and Sunshine
TTITLE3=Pay Me What Thou Owest
TTITLE4=Waiting For The Fall
EXTD=
EXTT0=
EXTT1=
EXTT2=
EXTT3=
EXTT4=
PLAYORDER=
